<svg width="120" height="120" viewBox="0 0 120 120" fill="none" xmlns="http://www.w3.org/2000/svg">
<path d="M17 24C17 15.1634 24.1634 8 33 8C41.8366 8 49 15.1634 49 24V96C49 104.837 41.8366 112 33 112C24.1634 112 17 104.837 17 96V24Z" fill="#6958D6"/>
<path d="M85 8C93.8366 8 101 15.1634 101 24C101 32.8366 93.8366 40 85 40L33 40C24.1634 40 17 32.8366 17 24C17 15.1634 24.1634 8 33 8L85 8Z" fill="#F87C58"/>
<path d="M76.7904 12.6066C82.6482 6.74875 92.1457 6.74874 98.0036 12.6066L99.4178 14.0208C105.276 19.8787 105.276 29.3762 99.4178 35.234L51.132 83.5198C45.2741 89.3777 35.7766 89.3777 29.9188 83.5198L28.5046 82.1056C22.6467 76.2478 22.6467 66.7503 28.5046 60.8924L76.7904 12.6066Z" fill="#98D8BD"/>
<path d="M23 40H49V89H23V40Z" fill="#6958D6"/>
</svg>
