<svg width="128" height="128" viewBox="0 0 128 128" fill="none" xmlns="http://www.w3.org/2000/svg">
<path d="M14.66 115.74C16.03 116.8 19.98 109.97 34.86 109.06C50.79 108.08 68.42 120.75 92.57 120.75C113.98 120.75 125.07 110.27 124.31 108.6C123.8 107.49 115.35 105.45 105.63 100.4C93.94 94.33 81.63 88.25 72.22 74.58C66.19 65.83 61.89 55.75 67.82 47.85C73.74 39.95 88.78 43.6 88.78 43.6L68.28 21.43L29.25 32.07L9.5 81.58L11.63 106.79L14.66 115.74V115.74Z" fill="url(#paint0_radial_30_10)"/>
<path d="M59.26 36.11C59.26 36.11 64.03 37.63 70.42 40.96C81.05 46.51 87.49 55.24 94.06 55.78C100.88 56.33 104.37 52.4 102.88 44.2C101.49 36.55 90.2 27.57 90.2 27.57C90.2 27.57 100.51 29.51 100.51 23.6C100.51 17.53 94.95 14.61 86.2 11.6C80.37 9.6 64.69 5.16 43.67 13.12C34.63 16.54 23.59 22.86 15.21 34.97C4.25002 50.81 2.03002 71.41 4.11002 87.05C6.63002 105.94 14.49 115.68 14.68 115.76C14.87 115.84 15.9 93.55 24.69 83.88C32.18 75.64 39.84 79.02 48.94 78.57C59.67 78.04 64.46 66.96 56.27 58.51C49.24 51.25 37.59 51.9 37.59 51.9C37.59 51.9 41.45 50.36 48.78 49.7C57.2 48.93 58.86 44.04 59.46 42.21C60.79 38.17 59.26 36.11 59.26 36.11V36.11Z" fill="#5E4DA3"/>
<path d="M38.15 36.3C37.59 33 47.31 30.02 57.49 31.62C73.33 34.11 85.87 48.56 91.19 50.67C99.03 53.79 101.79 47.38 97.86 40.44C93.81 33.27 83.09 27.17 83.49 24.8C84.21 20.59 95.19 27 95.86 22.32C96.31 19.22 88.11 14.76 80.32 12.77C74.05 11.17 60.88 9.2 42.68 17.13C19.02 27.46 8.79 48.01 7.1 69.54C5.5 89.96 13.3 105.18 13.3 105.18C13.3 105.18 13.83 89.94 21.47 81.55C27.05 75.43 34.21 73.13 41.98 74.61C54.94 77.09 60.59 67.72 54.36 60.95C50.28 56.52 45.05 55.14 39.64 54.96C30.29 54.66 25.26 57.79 24.99 56.73C24.59 55.12 29.66 51.39 36.09 48.71C44.55 45.19 54.76 47.6 56.36 40.52C57.14 37.07 55.19 35.18 49.61 34.77C42.56 34.26 38.19 36.54 38.15 36.3V36.3Z" fill="white"/>
<defs>
<radialGradient id="paint0_radial_30_10" cx="0" cy="0" r="1" gradientUnits="userSpaceOnUse" gradientTransform="translate(59.851 -1.405) scale(113.707)">
<stop offset="0.423" stop-color="#C445F0"/>
<stop offset="0.518" stop-color="#8B41E9"/>
<stop offset="0.674" stop-color="#4437D7"/>
<stop offset="0.87" stop-color="#276BBA"/>
<stop offset="1" stop-color="#1B83A4"/>
</radialGradient>
</defs>
</svg>
